<svg xmlns="http://www.w3.org/2000/svg" viewBox="0 0 180 180">
  <rect width="180" height="180" rx="40" fill="#265242"/>
  <g transform="translate(39, 37.5) scale(0.1477)">
    <path d="M 229 0.680 C 189.606 3.572, 148.875 17.606, 115.500 39.788 C 61.129 75.925, 21.897 134.462, 7.118 201.500 C 1.817 225.543, 1.681 227.669, 1.260 293.250 L 0.864 355 114.682 355.123 C 184.892 355.200, 226.010 355.583, 222 356.125 C 188.273 360.684, 167.115 366.929, 140.500 380.185 C 73.913 413.346, 24.185 479.081, 7.118 556.500 C 1.817 580.544, 1.681 582.667, 1.260 648.273 L 0.864 710.045 233.182 709.705 C 487.875 709.331, 468.816 709.779, 494.475 703.562 C 556.766 688.467, 609.618 649.657, 646.399 592 C 652.695 582.130, 665.909 555.047, 670.481 542.640 C 679.027 519.451, 684.968 491.601, 686.936 465.500 C 687.517 457.800, 687.994 429.788, 687.996 403.250 L 688 355 572.250 354.832 C 508.587 354.739, 458.300 354.507, 460.500 354.316 C 470.341 353.462, 486.547 350.556, 498.500 347.503 C 558.207 332.251, 610.835 293.216, 645.462 238.498 C 652.713 227.039, 665.818 200.423, 670.502 187.640 C 679.065 164.271, 684.972 136.545, 686.936 110.500 C 687.517 102.800, 687.994 74.788, 687.996 48.250 L 688 0 460.750 0.175 C 335.762 0.271, 231.475 0.498, 229 0.680" fill="#D6FF33" fill-rule="evenodd"/>
  </g>
</svg>
